<svg xmlns="http://www.w3.org/2000/svg" aria-hidden="true" style="width:0;height:0;position:absolute;overflow:hidden"><defs><symbol id="icon-film" viewBox="0 0 32 32"><path fill="none" stroke-linejoin="round" stroke-linecap="round" stroke-width="2.667" d="M26.427 2.667H5.574a2.907 2.907 0 0 0-2.907 2.907v20.853a2.907 2.907 0 0 0 2.907 2.907h20.853a2.907 2.907 0 0 0 2.907-2.907V5.574a2.907 2.907 0 0 0-2.907-2.907zM9.333 2.667v26.667M22.667 2.667v26.667M2.667 16h26.667M2.667 9.333h6.667M2.667 22.667h6.667M22.667 22.667h6.667M22.667 9.333h6.667"/></symbol><symbol id="icon-heart-goit" viewBox="0 0 34 32"><path d="m17.231 31.705-2.412-2.412C5.859 21.367.001 16.025.001 9.478.001 4.136 4.136.001 9.478.001c2.929 0 5.858 1.378 7.754 3.618 1.895-2.24 4.825-3.618 7.754-3.618 5.342 0 9.477 4.135 9.477 9.477 0 6.548-5.858 11.889-14.818 19.815l-2.412 2.412z"/></symbol></defs><symbol id="icon-cross" viewBox="0 0 32 32"><path d="M23.733 10.304 22.229 8.8l-5.963 5.963L10.303 8.8l-1.504 1.504 5.963 5.963-5.963 5.963 1.504 1.504 5.963-5.963 5.963 5.963 1.504-1.504-5.963-5.963 5.963-5.963z"/></symbol><symbol id="icon-mail" viewBox="0 0 32 32"><path d="m31.523 16.595-1.557-1.557a1.634 1.634 0 0 0-2.307 0l-8.41 8.41-1.159 4.251-.284.284a.545.545 0 0 0-.003.768l-.003.011.01-.003a.545.545 0 0 0 .768-.003l.284-.284 4.25-1.159 8.41-8.41a1.633 1.633 0 0 0 0-2.307zm-11.012 7.137 5.597-5.597 2.319 2.319-5.597 5.597-2.319-2.319zm-.493 1.052 1.76 1.76-2.42.66.66-2.419zm10.732-6.655-1.551 1.551-2.319-2.318 1.551-1.551a.54.54 0 0 1 .762-.001l1.557 1.557a.54.54 0 0 1-.001.761z"/><path d="M15.847 24.396H2.12c2.485-1.969 8.088-6.438 10.966-8.963l.777.686c.547.489 1.266.733 1.985.733.717 0 1.436-.244 1.981-.731L30.601 4.843v8.624a.546.546 0 0 0 1.092 0V3.631l-.003-.012a.517.517 0 0 0-.033-.181l-.006-.01c-.006-.015-.016-.026-.022-.04a.526.526 0 0 0-.082-.121c-.014-.015-.029-.028-.045-.042a.516.516 0 0 0-.111-.075c-.018-.009-.034-.019-.053-.026a.53.53 0 0 0-.191-.039H.546a.54.54 0 0 0-.356.14c-.016.014-.031.027-.045.042a.537.537 0 0 0-.082.121c-.007.014-.016.026-.022.04l-.006.01a.54.54 0 0 0-.032.181C.002 3.623 0 3.627 0 3.632v21.311l.001.005a.552.552 0 0 0 .029.174c.002.007.007.011.01.018.008.019.019.036.028.054a.558.558 0 0 0 .122.156.507.507 0 0 0 .109.073c.019.01.036.02.055.028a.566.566 0 0 0 .192.038h15.3a.545.545 0 1 0 0-1.092zm-14.754-.581V4.843l11.168 9.861c-3.036 2.652-8.935 7.344-11.168 9.111zm28.61-19.637-12.6 11.126c-.692.619-1.82.619-2.515-.002l-1.081-.955-.007-.011c-.012-.014-.029-.019-.042-.031L1.991 4.179h27.712z"/></symbol><symbol id="icon-github" viewBox="0 0 32 32"><path d="M16 5.343c-6.196 0-11.219 5.023-11.219 11.219 0 4.957 3.214 9.162 7.673 10.645.561.103.766-.244.766-.54 0-.267-.01-1.152-.016-2.088-3.12.678-3.779-1.323-3.779-1.323-.511-1.296-1.246-1.641-1.246-1.641-1.02-.696.077-.682.077-.682 1.126.078 1.72 1.156 1.72 1.156 1.001 1.715 2.627 1.219 3.265.931.102-.723.392-1.219.712-1.498-2.49-.283-5.11-1.246-5.11-5.545 0-1.226.438-2.225 1.154-3.011-.114-.285-.501-1.426.111-2.97 0 0 .941-.301 3.085 1.15.894-.25 1.854-.373 2.807-.377.953.004 1.913.129 2.809.379 2.14-1.453 3.083-1.15 3.083-1.15.613 1.545.227 2.685.112 2.969.719.785 1.153 1.785 1.153 3.011 0 4.31-2.624 5.259-5.123 5.537.404.348.761 1.03.761 2.076 0 1.5-.015 2.709-.015 3.079 0 .299.204.648.772.538 4.455-1.486 7.666-5.69 7.666-10.645 0-6.195-5.023-11.219-11.219-11.219z"/></symbol></svg>